<?xml version="1.0" encoding="UTF-8"?>
<svg xmlns="http://www.w3.org/2000/svg" xmlns:xlink="http://www.w3.org/1999/xlink" width="2200" height="2200" viewBox="0 0 2200 2200">
<path fill-rule="nonzero" fill="rgb(100%, 100%, 100%)" fill-opacity="1" d="M 0 2199.769531 L 2199.769531 2199.769531 L 2199.769531 0 L 0 0 Z M 0 2199.769531 "/>
<path fill-rule="nonzero" fill="rgb(45.092773%, 88.671875%, 92.96875%)" fill-opacity="1" d="M 665.589844 392.238281 C 665.589844 451.730469 617.363281 499.960938 557.867188 499.960938 C 498.375 499.960938 450.144531 451.730469 450.144531 392.238281 C 450.144531 332.75 498.375 284.519531 557.867188 284.519531 C 617.363281 284.519531 665.589844 332.75 665.589844 392.238281 "/>
<path fill-rule="nonzero" fill="rgb(66.601562%, 97.264099%, 91.014099%)" fill-opacity="1" d="M 1771.621094 1082.820312 L 652.402344 1258.222656 L 1740.820312 1151.898438 C 1752.460938 1129.519531 1762.75 1106.441406 1771.621094 1082.820312 Z M 1771.621094 1082.820312 "/>
<path fill-rule="nonzero" fill="rgb(45.092773%, 88.671875%, 92.96875%)" fill-opacity="1" d="M 1703.941406 508.339844 L 653.679688 661.929688 L 1743.128906 574.820312 C 1731.441406 551.878906 1718.351562 529.679688 1703.941406 508.339844 Z M 1703.941406 508.339844 "/>
<path fill-rule="nonzero" fill="rgb(83.201599%, 97.65625%, 92.576599%)" fill-opacity="1" d="M 1789.890625 1026.210938 L 488.382812 1240.480469 C 427.578125 1310.902344 394.125 1400.839844 394.125 1493.878906 C 394.125 1596.71875 434.976562 1695.34375 507.691406 1768.058594 C 580.410156 1840.773438 679.035156 1881.625 781.871094 1881.625 C 918.449219 1881.625 1044.949219 1809.769531 1114.898438 1692.464844 C 1184.851562 1809.769531 1311.359375 1881.625 1447.941406 1881.625 C 1550.769531 1881.625 1649.398438 1840.773438 1722.109375 1768.058594 C 1794.828125 1695.339844 1835.679688 1596.714844 1835.679688 1493.878906 C 1835.679688 1384.570312 1789.539062 1280.339844 1708.628906 1206.851562 C 1720.28125 1189.089844 1731.019531 1170.75 1740.820312 1151.898438 L 652.402344 1258.222656 L 1771.621094 1082.820312 C 1778.601562 1064.25 1784.691406 1045.359375 1789.890625 1026.210938 Z M 1789.890625 1026.210938 "/>
<path fill-rule="nonzero" fill="rgb(53.318787%, 65.818787%, 17.259216%)" fill-opacity="1" d="M 405.824219 1588.414062 C 430.027344 1684.695312 490.238281 1768.023438 574.054688 1821.230469 C 700.894531 1812.964844 810.722656 1797.644531 888.40625 1777.378906 C 966.089844 1757.113281 1007.808594 1732.902344 1007.800781 1708.082031 C 1007.800781 1677.800781 945.757812 1648.640625 834.113281 1626.445312 C 722.46875 1604.25 569.480469 1590.664062 405.824219 1588.414062 Z M 405.824219 1588.414062 "/>
<path fill-rule="nonzero" fill="rgb(83.201599%, 97.65625%, 92.576599%)" fill-opacity="1" d="M 412.648438 1612.292969 C 413.015625 1613.433594 413.386719 1614.574219 413.761719 1615.710938 C 580.53125 1627.398438 669.65625 1647.316406 769.074219 1666.195312 C 769.976562 1666.363281 770.84375 1665.769531 771.015625 1664.867188 C 771.183594 1663.96875 770.59375 1663.101562 769.695312 1662.925781 C 670.074219 1644.011719 580.464844 1623.980469 412.648438 1612.292969 Z M 423.628906 1642.234375 C 424.128906 1643.445312 424.640625 1644.65625 425.152344 1645.867188 C 476.003906 1654.300781 526.691406 1662.703125 645.808594 1697.085938 C 646.695312 1697.34375 647.621094 1696.828125 647.871094 1695.941406 C 648.125 1695.058594 647.613281 1694.136719 646.730469 1693.882812 C 525.902344 1659.007812 475.175781 1650.789062 423.628906 1642.234375 Z M 964.410156 1664.984375 C 941.660156 1674.941406 917.988281 1686.289062 892.902344 1699.359375 C 892.089844 1699.785156 891.773438 1700.789062 892.195312 1701.605469 C 892.621094 1702.421875 893.628906 1702.738281 894.445312 1702.3125 C 920.414062 1688.777344 944.855469 1677.101562 968.316406 1666.90625 C 967.042969 1666.261719 965.742188 1665.621094 964.410156 1664.984375 Z M 964.410156 1664.984375 "/>
<path fill-rule="nonzero" fill="rgb(59.959412%, 74.021912%, 19.604492%)" fill-opacity="1" d="M 1353.25 1588.082031 C 1180.769531 1588.082031 1015.351562 1600.722656 893.390625 1623.226562 C 771.425781 1645.734375 702.910156 1676.253906 702.910156 1708.082031 C 702.914062 1749.328125 817.710938 1787.679688 1006.898438 1809.648438 C 1050.628906 1778.484375 1087.398438 1738.582031 1114.898438 1692.464844 C 1147.730469 1747.523438 1193.699219 1793.582031 1248.691406 1826.523438 C 1283.261719 1827.558594 1318.230469 1828.082031 1353.25 1828.082031 C 1463.378906 1828.082031 1571.699219 1822.921875 1668.058594 1813.085938 C 1735.308594 1766.714844 1786.191406 1700.289062 1813.449219 1623.292969 C 1691.460938 1600.75 1525.898438 1588.082031 1353.25 1588.082031 Z M 1353.25 1588.082031 "/>
<path fill-rule="nonzero" fill="rgb(66.601562%, 97.264099%, 91.014099%)" fill-opacity="1" d="M 1681.148438 476.75 L 598.898438 620.390625 C 567.359375 696.730469 551.125 778.519531 551.125 861.121094 C 551.125 958.851562 573.851562 1055.25 617.507812 1142.691406 C 568.0625 1165.839844 524.058594 1199.160156 488.382812 1240.480469 L 1789.890625 1026.210938 C 1804.5 972.390625 1811.890625 916.878906 1811.890625 861.121094 C 1811.890625 761.601562 1788.328125 663.488281 1743.128906 574.820312 L 653.679688 661.929688 L 1703.941406 508.339844 C 1696.671875 497.578125 1689.070312 487.039062 1681.148438 476.75 Z M 1681.148438 476.75 "/>
<path fill-rule="nonzero" fill="rgb(45.092773%, 88.671875%, 92.96875%)" fill-opacity="1" d="M 1181.5 230.730469 C 1056.730469 230.730469 934.765625 267.761719 831.054688 337.128906 C 727.34375 406.488281 646.546875 505.078125 598.898438 620.390625 L 1681.148438 476.75 C 1561.820312 321.628906 1377.21875 230.730469 1181.511719 230.730469 C 1181.511719 230.730469 1181.5 230.730469 1181.5 230.730469 Z M 1181.5 230.730469 "/>
<path fill-rule="nonzero" fill="rgb(83.201599%, 97.65625%, 92.576599%)" fill-opacity="1" d="M 1377.050781 1588.164062 C 1283.671875 1612.972656 1214.558594 1642.761719 1141.238281 1699.519531 C 1140.519531 1700.082031 1140.378906 1701.128906 1140.941406 1701.855469 C 1141.511719 1702.582031 1142.558594 1702.710938 1143.28125 1702.148438 C 1219.320312 1643.28125 1290.570312 1613.65625 1389.828125 1588.269531 C 1385.570312 1588.226562 1381.308594 1588.191406 1377.050781 1588.164062 Z M 1254.441406 1589.472656 C 1246.308594 1589.703125 1238.191406 1589.964844 1230.109375 1590.25 C 1112.21875 1610.757812 1020.820312 1632.699219 892.902344 1699.359375 C 892.089844 1699.785156 891.773438 1700.789062 892.195312 1701.605469 C 892.621094 1702.421875 893.628906 1702.738281 894.445312 1702.3125 C 1030.480469 1631.421875 1124.839844 1611.308594 1254.441406 1589.472656 Z M 1543.070312 1593.316406 C 1542.769531 1593.316406 1542.480469 1593.402344 1542.230469 1593.554688 C 1505.609375 1615.703125 1485.578125 1667.105469 1483.148438 1698.328125 C 1483.078125 1699.246094 1483.769531 1700.046875 1484.679688 1700.117188 C 1485.601562 1700.1875 1486.398438 1699.503906 1486.46875 1698.585938 C 1488.808594 1668.515625 1508.839844 1617.632812 1543.949219 1596.402344 C 1544.738281 1595.925781 1544.988281 1594.902344 1544.511719 1594.117188 C 1544.210938 1593.613281 1543.660156 1593.308594 1543.070312 1593.316406 Z M 1615.570312 1598.277344 C 1622.519531 1628.433594 1621.480469 1663.957031 1614.800781 1695.089844 C 1614.609375 1695.984375 1615.179688 1696.867188 1616.078125 1697.0625 C 1616.980469 1697.25 1617.859375 1696.679688 1618.050781 1695.785156 C 1624.75 1664.570312 1625.890625 1629.113281 1619.058594 1598.5625 Z M 1699.449219 1606.496094 C 1712.550781 1612.867188 1729.640625 1624.796875 1745.988281 1639.417969 C 1761 1652.84375 1775.410156 1668.550781 1785.738281 1684.230469 C 1786.359375 1683.140625 1786.96875 1682.050781 1787.570312 1680.957031 C 1777.101562 1665.417969 1762.941406 1650.109375 1748.210938 1636.933594 C 1734.648438 1624.804688 1720.660156 1614.523438 1708.570312 1607.578125 C 1705.550781 1607.210938 1702.511719 1606.851562 1699.449219 1606.496094 Z M 1699.449219 1606.496094 "/>
<path fill-rule="nonzero" fill="rgb(75.78125%, 83.59375%, 15.696716%)" fill-opacity="1" d="M 445.804688 1685.484375 L 1752.910156 1685.484375 C 1819.070312 1685.484375 1872.339844 1738.75 1872.339844 1804.910156 C 1872.339844 1871.074219 1819.070312 1924.339844 1752.910156 1924.339844 L 445.804688 1924.339844 C 379.640625 1924.339844 326.378906 1871.074219 326.378906 1804.910156 C 326.378906 1738.75 379.640625 1685.484375 445.804688 1685.484375 Z M 445.804688 1685.484375 "/>
<path fill-rule="nonzero" fill="rgb(53.318787%, 65.818787%, 17.259216%)" fill-opacity="1" d="M 1588.949219 1821.570312 C 1588.949219 1852.523438 1470.640625 1877.613281 1324.699219 1877.613281 C 1178.769531 1877.613281 1060.460938 1852.523438 1060.460938 1821.570312 C 1060.460938 1790.621094 1178.769531 1765.53125 1324.699219 1765.53125 C 1470.640625 1765.53125 1588.949219 1790.621094 1588.949219 1821.570312 "/>
<path fill-rule="nonzero" fill="rgb(100%, 100%, 100%)" fill-opacity="1" d="M 481.78125 378.660156 L 1069.859375 378.660156 C 1143.660156 378.660156 1203.070312 438.070312 1203.070312 511.871094 L 1203.070312 1046.121094 C 1203.070312 1119.921875 1143.660156 1179.328125 1069.859375 1179.328125 L 481.78125 1179.328125 C 407.984375 1179.328125 348.574219 1119.921875 348.574219 1046.121094 L 348.574219 511.871094 C 348.574219 438.070312 407.984375 378.660156 481.78125 378.660156 Z M 481.78125 378.660156 "/>
<path fill-rule="nonzero" fill="rgb(12.939453%, 26.660156%, 47.068787%)" fill-opacity="1" d="M 463.277344 364.480469 C 389.09375 364.480469 329.347656 424.230469 329.347656 498.410156 L 329.347656 1032.660156 C 329.347656 1106.851562 389.09375 1166.589844 463.277344 1166.589844 L 1051.359375 1166.589844 C 1125.539062 1166.589844 1185.28125 1106.851562 1185.28125 1032.660156 L 1185.28125 498.410156 C 1185.28125 424.230469 1125.539062 364.480469 1051.359375 364.480469 Z M 463.277344 365.929688 L 1051.359375 365.929688 C 1124.769531 365.929688 1183.839844 425 1183.839844 498.410156 L 1183.839844 1032.660156 C 1183.839844 1106.070312 1124.769531 1165.148438 1051.359375 1165.148438 L 463.277344 1165.148438 C 389.867188 1165.148438 330.792969 1106.070312 330.792969 1032.660156 L 330.792969 498.410156 C 330.792969 425 389.867188 365.929688 463.277344 365.929688 Z M 463.277344 365.929688 "/>
<path fill-rule="nonzero" fill="rgb(36.083984%, 24.705505%, 17.259216%)" fill-opacity="1" d="M 1198.480469 555.429688 C 1206.089844 575.421875 1242.140625 603.480469 1342.070312 633.800781 C 1442 664.121094 1487.410156 657.730469 1510.851562 646.910156 C 1510.851562 646.910156 1487.679688 591.949219 1401.851562 549.21875 C 1316.03125 506.480469 1227.96875 539.789062 1218.070312 544.570312 C 1208.179688 549.339844 1198.480469 555.429688 1198.480469 555.429688 Z M 1198.480469 555.429688 "/>
<path fill-rule="nonzero" fill="rgb(19.993591%, 19.993591%, 19.993591%)" fill-opacity="1" d="M 1298.019531 1825.867188 C 1294.179688 1831.027344 1284.011719 1830.535156 1284.011719 1830.535156 L 1182.261719 1830.535156 C 1182.261719 1830.535156 1178.578125 1830.164062 1177.28125 1825.292969 C 1175.96875 1820.421875 1179.039062 1798.925781 1179.039062 1798.925781 C 1179.039062 1798.925781 1192.570312 1793.171875 1212.300781 1786.96875 C 1232.03125 1780.765625 1252.609375 1773.339844 1252.609375 1773.339844 L 1252.761719 1747.445312 L 1299.601562 1747.445312 C 1299.601562 1747.445312 1297.339844 1772.832031 1296.628906 1783.359375 C 1296.289062 1788.488281 1299.980469 1815.101562 1299.980469 1815.101562 C 1299.980469 1815.101562 1301.851562 1820.710938 1298.011719 1825.867188 Z M 1298.019531 1825.867188 "/>
<path fill-rule="nonzero" fill="rgb(10.984802%, 22.75238%, 39.988708%)" fill-opacity="1" d="M 1331.5 1454.789062 C 1331.5 1454.789062 1324.488281 1412.097656 1285.101562 1412.097656 C 1245.699219 1412.097656 1242.058594 1454.789062 1242.058594 1454.789062 L 1244.230469 1767.5625 L 1305.589844 1767.5625 Z M 1331.5 1454.789062 "/>
<path fill-rule="nonzero" fill="rgb(10.984802%, 22.75238%, 39.988708%)" fill-opacity="1" d="M 1357.210938 1130.679688 L 1357.210938 1131.460938 L 1253.941406 1140.210938 L 1241.5 1451.960938 C 1241.5 1451.960938 1242.601562 1498.386719 1283.460938 1500.707031 C 1324.308594 1503.027344 1330.820312 1457.039062 1330.820312 1457.039062 L 1351.539062 1298.101562 L 1359.359375 1131.140625 Z M 1357.210938 1130.679688 "/>
<path fill-rule="nonzero" fill="rgb(19.993591%, 19.993591%, 19.993591%)" fill-opacity="1" d="M 1395.679688 1823.332031 C 1399.519531 1828.492188 1409.679688 1828 1409.679688 1828 L 1482.320312 1828 C 1482.320312 1828 1484.980469 1827.457031 1486.230469 1824.246094 C 1487.480469 1821.035156 1485.839844 1800.222656 1485.839844 1800.222656 C 1485.839844 1800.222656 1484.519531 1795.972656 1463.96875 1786.507812 C 1443.421875 1777.039062 1441.078125 1770.804688 1441.078125 1770.804688 L 1440.929688 1744.910156 L 1394.089844 1744.910156 C 1394.089844 1744.910156 1396.359375 1770.296875 1397.058594 1780.824219 C 1397.410156 1785.953125 1393.710938 1812.566406 1393.710938 1812.566406 C 1393.710938 1812.566406 1391.839844 1818.175781 1395.679688 1823.332031 Z M 1395.679688 1823.332031 "/>
<path fill-rule="nonzero" fill="rgb(10.984802%, 22.75238%, 39.988708%)" fill-opacity="1" d="M 1354.789062 1452.253906 C 1354.789062 1452.253906 1362.910156 1409.5625 1408.539062 1409.5625 C 1454.160156 1409.5625 1458.390625 1452.253906 1458.390625 1452.253906 L 1455.878906 1765.027344 L 1384.800781 1765.027344 Z M 1354.789062 1452.253906 "/>
<path fill-rule="nonzero" fill="rgb(10.984802%, 22.75238%, 39.988708%)" fill-opacity="1" d="M 1460.898438 1140.210938 L 1458.390625 1452.253906 C 1458.390625 1452.253906 1454.601562 1498.554688 1407.21875 1498.554688 C 1359.839844 1498.554688 1354.789062 1452.253906 1354.789062 1452.253906 L 1339.460938 1292.351562 L 1325.378906 1125.390625 Z M 1460.898438 1140.210938 "/>
<path fill-rule="nonzero" fill="rgb(92.1875%, 55.271912%, 43.530273%)" fill-opacity="1" d="M 1187.910156 944.449219 L 1217.179688 866.179688 C 1217.179688 866.179688 1220.539062 829.929688 1241.949219 795.039062 C 1263.371094 760.148438 1288.761719 757.441406 1288.761719 757.441406 C 1288.761719 757.441406 1301.070312 773.511719 1301.289062 802.578125 C 1301.519531 831.640625 1285.460938 859.128906 1285.460938 859.128906 L 1231.660156 966.441406 C 1231.660156 966.441406 1220.96875 986.53125 1199.238281 975.609375 C 1177.511719 964.679688 1187.910156 944.449219 1187.910156 944.449219 Z M 1187.910156 944.449219 "/>
<path fill-rule="nonzero" fill="rgb(12.939453%, 26.660156%, 47.068787%)" fill-opacity="1" d="M 1288.761719 757.441406 C 1288.761719 757.441406 1270.671875 756.238281 1254.820312 774.050781 C 1238.960938 791.859375 1229.230469 814.480469 1229.230469 814.480469 L 1194.921875 905.578125 L 1253.71875 933.710938 C 1253.71875 933.710938 1293.980469 865.128906 1303.019531 821.378906 C 1312.070312 777.640625 1288.761719 757.441406 1288.761719 757.441406 Z M 1288.761719 757.441406 "/>
<path fill-rule="nonzero" fill="rgb(98.826599%, 76.171875%, 60.742188%)" fill-opacity="1" d="M 1230.949219 944.820312 L 1140.46875 809.378906 C 1140.46875 809.378906 1132.128906 799.488281 1120.871094 806.070312 C 1109.609375 812.648438 1114.488281 824.578125 1114.488281 824.578125 L 1188.679688 969.539062 C 1188.679688 969.539062 1200.628906 988.898438 1221.621094 976.621094 C 1242.609375 964.339844 1230.949219 944.820312 1230.949219 944.820312 Z M 1230.949219 944.820312 "/>
<path fill-rule="nonzero" fill="rgb(92.1875%, 55.271912%, 43.530273%)" fill-opacity="1" d="M 1363.988281 705.511719 L 1363.988281 755 C 1332.570312 755 1319.96875 741.871094 1319.96875 741.871094 L 1328.320312 729.488281 L 1331.480469 705.511719 Z M 1363.988281 705.511719 "/>
<path fill-rule="nonzero" fill="rgb(92.1875%, 55.271912%, 43.530273%)" fill-opacity="1" d="M 1363.988281 705.511719 L 1363.988281 748.570312 C 1395.410156 748.570312 1417.628906 737.210938 1417.628906 737.210938 L 1399.660156 729.488281 L 1396.5 705.511719 Z M 1363.988281 705.511719 "/>
<path fill-rule="nonzero" fill="rgb(33.325195%, 59.959412%, 100%)" fill-opacity="1" d="M 1328.320312 729.480469 L 1278.75 758.699219 C 1278.75 758.699219 1274.699219 761.160156 1269.839844 770.03125 C 1264.980469 778.890625 1259.890625 809.511719 1257.019531 827.679688 C 1254.140625 845.859375 1253.929688 886.121094 1253.929688 886.121094 L 1253.949219 1133.058594 L 1252.148438 1157.078125 C 1273.578125 1176.941406 1433.371094 1181.949219 1461.5 1162.75 L 1460.898438 1140.210938 L 1458.71875 1014.199219 L 1496.339844 829.378906 L 1482.960938 765.839844 L 1399.660156 729.480469 L 1346.558594 748.570312 Z M 1328.320312 729.480469 "/>
<path fill-rule="nonzero" fill="rgb(92.1875%, 55.271912%, 43.530273%)" fill-opacity="1" d="M 1476.828125 978.230469 L 1467.839844 895.140625 C 1467.839844 895.140625 1454.550781 861.25 1458.019531 820.460938 C 1461.488281 779.660156 1482.949219 765.839844 1482.949219 765.839844 C 1482.949219 765.839844 1501.179688 774.671875 1514.429688 800.539062 C 1527.679688 826.421875 1525.679688 858.179688 1525.679688 858.179688 L 1525.800781 978.230469 C 1525.800781 978.230469 1525.261719 1000.96875 1500.941406 1000.96875 C 1476.621094 1000.96875 1476.828125 978.230469 1476.828125 978.230469 Z M 1476.828125 978.230469 "/>
<path fill-rule="nonzero" fill="rgb(12.939453%, 26.660156%, 47.068787%)" fill-opacity="1" d="M 1482.949219 765.839844 C 1482.949219 765.839844 1466.261719 772.890625 1460.089844 795.929688 C 1453.910156 818.960938 1455.378906 843.539062 1455.378906 843.539062 L 1465.640625 940.351562 L 1530.800781 939.070312 C 1530.800781 939.070312 1535.980469 859.710938 1524.421875 816.570312 C 1512.859375 773.421875 1482.949219 765.839844 1482.949219 765.839844 Z M 1482.949219 765.839844 "/>
<path fill-rule="nonzero" fill="rgb(19.993591%, 19.993591%, 19.993591%)" fill-opacity="1" d="M 1256.621094 576.679688 C 1267.148438 540.53125 1302.039062 514.410156 1332.671875 512.320312 C 1363.289062 510.238281 1378.761719 514.109375 1383.21875 519.160156 C 1387.679688 524.21875 1340.101562 533.140625 1324.339844 543.25 C 1308.578125 553.359375 1291.039062 566.738281 1286.28125 574.769531 C 1281.519531 582.800781 1275.910156 630.46875 1275.910156 630.46875 C 1275.910156 630.46875 1246.089844 612.820312 1256.621094 576.679688 Z M 1256.621094 576.679688 "/>
<path fill-rule="nonzero" fill="rgb(98.826599%, 76.171875%, 60.742188%)" fill-opacity="1" d="M 1361.171875 517.050781 C 1409.378906 517.71875 1448.109375 543.269531 1447.121094 613.511719 C 1446.648438 646.898438 1428.640625 681.988281 1403.980469 701.75 C 1379.320312 721.511719 1350.828125 724.21875 1328.070312 723.898438 C 1305.320312 723.578125 1271.609375 677.621094 1272.570312 609.828125 C 1273.53125 542.039062 1312.96875 516.371094 1361.171875 517.050781 Z M 1361.171875 517.050781 "/>
<path fill-rule="nonzero" fill="rgb(0%, 39.988708%, 100%)" fill-opacity="1" d="M 1328.320312 729.488281 L 1346.558594 748.570312 L 1324.640625 770.488281 L 1318.808594 734.339844 Z M 1328.320312 729.488281 "/>
<path fill-rule="nonzero" fill="rgb(19.993591%, 19.993591%, 19.993591%)" fill-opacity="1" d="M 1347.730469 609.929688 C 1349.679688 609.328125 1352.601562 608.980469 1356.460938 609.710938 C 1360.339844 610.429688 1362.960938 611.859375 1364.621094 613.140625 C 1366.28125 614.429688 1367.070312 615.738281 1367.070312 615.738281 C 1367.578125 616.621094 1367.269531 617.761719 1366.390625 618.269531 C 1365.5 618.78125 1364.371094 618.46875 1363.859375 617.589844 C 1363.859375 617.589844 1363.558594 617.011719 1362.351562 616.070312 C 1361.140625 615.128906 1359.089844 613.960938 1355.769531 613.339844 C 1352.429688 612.710938 1350.210938 613.058594 1348.820312 613.480469 C 1347.441406 613.890625 1347.058594 614.261719 1347.058594 614.261719 C 1346.289062 614.941406 1345.128906 614.871094 1344.441406 614.109375 C 1343.769531 613.339844 1343.839844 612.160156 1344.621094 611.488281 C 1344.621094 611.488281 1345.78125 610.519531 1347.730469 609.929688 Z M 1347.730469 609.929688 "/>
<path fill-rule="nonzero" fill="rgb(19.993591%, 19.993591%, 19.993591%)" fill-opacity="1" d="M 1299.988281 609.828125 C 1298.039062 609.230469 1295.128906 608.890625 1291.261719 609.609375 C 1287.390625 610.328125 1284.769531 611.761719 1283.109375 613.050781 C 1281.441406 614.328125 1280.660156 615.640625 1280.660156 615.640625 C 1280.140625 616.53125 1280.449219 617.660156 1281.339844 618.171875 C 1282.21875 618.679688 1283.359375 618.371094 1283.859375 617.488281 C 1283.859375 617.488281 1284.160156 616.910156 1285.371094 615.96875 C 1286.589844 615.03125 1288.628906 613.859375 1291.949219 613.238281 C 1295.289062 612.621094 1297.519531 612.960938 1298.898438 613.378906 C 1300.28125 613.789062 1300.671875 614.160156 1300.671875 614.160156 C 1301.429688 614.839844 1302.601562 614.78125 1303.28125 614.019531 C 1303.960938 613.25 1303.878906 612.070312 1303.101562 611.398438 C 1303.101562 611.398438 1301.941406 610.421875 1299.988281 609.828125 Z M 1299.988281 609.828125 "/>
<path fill-rule="nonzero" fill="rgb(80.076599%, 80.076599%, 80.076599%)" fill-opacity="1" d="M 1253.761719 825.609375 L 1291.839844 825.609375 C 1296.570312 825.609375 1301.378906 829.300781 1302.601562 833.871094 L 1321.808594 905.550781 C 1323.03125 910.121094 1320.210938 913.808594 1315.46875 913.808594 L 1277.390625 913.808594 C 1272.660156 913.808594 1267.859375 910.121094 1266.628906 905.550781 L 1247.429688 833.871094 C 1246.199219 829.300781 1249.019531 825.609375 1253.761719 825.609375 Z M 1253.761719 825.609375 "/>
<path fill-rule="nonzero" fill="rgb(100%, 100%, 100%)" fill-opacity="1" d="M 1250.589844 828.429688 C 1249.558594 828.429688 1248.628906 828.609375 1247.800781 828.929688 C 1247.109375 830.308594 1246.929688 832.011719 1247.429688 833.871094 L 1266.628906 905.550781 C 1267.859375 910.121094 1272.660156 913.808594 1277.390625 913.808594 L 1315.46875 913.808594 C 1316.5 913.808594 1317.441406 913.621094 1318.261719 913.308594 C 1318.960938 911.929688 1319.140625 910.21875 1318.640625 908.371094 L 1299.429688 836.679688 C 1298.210938 832.109375 1293.410156 828.429688 1288.679688 828.429688 Z M 1250.589844 828.429688 "/>
<path fill-rule="nonzero" fill="rgb(98.826599%, 76.171875%, 60.742188%)" fill-opacity="1" d="M 1344.929688 935.660156 C 1344.929688 935.660156 1357.261719 936.359375 1362.019531 924.601562 C 1366.78125 912.839844 1357.109375 905.558594 1357.109375 905.558594 L 1321.421875 874.941406 C 1321.421875 874.941406 1315.121094 870.390625 1309.789062 870.199219 C 1304.46875 870.011719 1309.261719 887.699219 1309.261719 887.699219 L 1263.511719 877.53125 C 1263.511719 877.53125 1259.101562 871.738281 1253.988281 875.730469 C 1248.890625 879.710938 1259.730469 902.390625 1264.679688 908.730469 C 1269.621094 915.070312 1303.941406 931.601562 1303.941406 931.601562 Z M 1344.929688 935.660156 "/>
<path fill-rule="nonzero" fill="rgb(98.826599%, 76.171875%, 60.742188%)" fill-opacity="1" d="M 1511.421875 957.671875 L 1357.058594 905.691406 C 1357.058594 905.691406 1344.410156 902.941406 1339.519531 915.039062 C 1334.609375 927.128906 1345.769531 933.589844 1345.769531 933.589844 L 1493.050781 1003.058594 C 1493.050781 1003.058594 1514.339844 1011.101562 1523.460938 988.558594 C 1532.578125 966.011719 1511.421875 957.671875 1511.421875 957.671875 Z M 1511.421875 957.671875 "/>
<path fill-rule="nonzero" fill="rgb(0%, 39.988708%, 100%)" fill-opacity="1" d="M 1398.5 720.789062 L 1346.558594 748.570312 L 1368.460938 770.488281 L 1405.898438 730.300781 Z M 1398.5 720.789062 "/>
<path fill-rule="nonzero" fill="rgb(19.993591%, 19.993591%, 19.993591%)" fill-opacity="1" d="M 1340.589844 637.421875 C 1340.589844 639.820312 1341.320312 642.121094 1342.621094 643.820312 C 1343.921875 645.511719 1345.679688 646.460938 1347.511719 646.460938 C 1351.328125 646.460938 1354.429688 642.410156 1354.429688 637.421875 C 1354.429688 632.429688 1351.328125 628.371094 1347.511719 628.371094 C 1343.691406 628.371094 1340.589844 632.429688 1340.589844 637.421875 Z M 1340.589844 637.421875 "/>
<path fill-rule="nonzero" fill="rgb(19.993591%, 19.993591%, 19.993591%)" fill-opacity="1" d="M 1291.359375 637.421875 C 1291.359375 639.820312 1292.089844 642.121094 1293.390625 643.820312 C 1294.691406 645.511719 1296.441406 646.460938 1298.28125 646.460938 C 1302.101562 646.460938 1305.199219 642.410156 1305.199219 637.421875 C 1305.199219 632.429688 1302.101562 628.371094 1298.28125 628.371094 C 1296.441406 628.371094 1294.691406 629.328125 1293.390625 631.019531 C 1292.089844 632.71875 1291.359375 635.019531 1291.359375 637.421875 Z M 1291.359375 637.421875 "/>
<path fill-rule="nonzero" fill="rgb(92.1875%, 55.271912%, 43.530273%)" fill-opacity="1" d="M 1320.671875 642.898438 C 1320.851562 642.910156 1321.03125 642.960938 1321.191406 643.039062 C 1321.929688 643.390625 1322.230469 644.28125 1321.878906 645.011719 C 1321.878906 645.011719 1319.980469 648.949219 1318.441406 653.191406 C 1317.671875 655.320312 1316.988281 657.519531 1316.691406 659.261719 C 1316.550781 660.128906 1316.5 660.878906 1316.539062 661.390625 C 1316.589844 661.910156 1316.730469 662.109375 1316.730469 662.109375 C 1319.140625 664.519531 1322.011719 664.539062 1322.011719 664.539062 C 1322.820312 664.558594 1323.46875 665.21875 1323.460938 666.03125 C 1323.460938 666.839844 1322.789062 667.5 1321.980469 667.488281 C 1321.980469 667.488281 1317.898438 667.449219 1314.640625 664.191406 C 1313.929688 663.46875 1313.679688 662.550781 1313.609375 661.648438 C 1313.53125 660.75 1313.640625 659.789062 1313.789062 658.769531 C 1314.140625 656.71875 1314.859375 654.398438 1315.671875 652.191406 C 1317.269531 647.761719 1319.21875 643.730469 1319.21875 643.730469 C 1319.488281 643.179688 1320.070312 642.851562 1320.671875 642.898438 Z M 1320.671875 642.898438 "/>
<path fill-rule="nonzero" fill="rgb(92.1875%, 55.271912%, 43.530273%)" fill-opacity="1" d="M 1313.039062 682.730469 C 1312.550781 682.730469 1312.089844 682.980469 1311.820312 683.390625 C 1311.378906 684.058594 1311.570312 684.960938 1312.230469 685.398438 C 1312.230469 685.398438 1313.300781 686.089844 1315.269531 686.671875 C 1317.238281 687.25 1320.230469 687.820312 1324.429688 687.839844 C 1328.628906 687.859375 1331.730469 687.28125 1333.800781 686.699219 C 1335.871094 686.109375 1337.019531 685.441406 1337.019531 685.441406 C 1337.710938 685.03125 1337.929688 684.128906 1337.511719 683.441406 C 1337.101562 682.75 1336.199219 682.519531 1335.511719 682.941406 C 1335.511719 682.941406 1334.808594 683.378906 1333 683.890625 C 1331.191406 684.410156 1328.371094 684.941406 1324.441406 684.929688 C 1320.5 684.910156 1317.789062 684.371094 1316.101562 683.871094 C 1314.410156 683.371094 1313.839844 682.980469 1313.839844 682.980469 C 1313.601562 682.820312 1313.320312 682.730469 1313.039062 682.730469 Z M 1313.039062 682.730469 "/>
<path fill-rule="nonzero" fill="rgb(92.1875%, 55.271912%, 43.530273%)" fill-opacity="1" d="M 1321.96875 694.460938 C 1321.609375 694.460938 1321.289062 694.699219 1321.179688 695.050781 C 1321.039062 695.488281 1321.289062 695.960938 1321.730469 696.089844 C 1321.730469 696.089844 1323.039062 696.511719 1324.550781 696.511719 C 1326.058594 696.511719 1327.539062 696.101562 1327.539062 696.101562 C 1327.980469 695.980469 1328.25 695.519531 1328.128906 695.078125 C 1328.011719 694.640625 1327.558594 694.371094 1327.109375 694.488281 C 1327.109375 694.488281 1325.738281 694.839844 1324.550781 694.839844 C 1323.351562 694.839844 1322.21875 694.5 1322.21875 694.5 C 1322.140625 694.480469 1322.058594 694.460938 1321.96875 694.460938 Z M 1321.96875 694.460938 "/>
<path fill-rule="nonzero" fill="rgb(98.826599%, 76.171875%, 60.742188%)" fill-opacity="1" d="M 1114.488281 824.578125 C 1114.488281 824.578125 1125.78125 829.570312 1134.378906 820.230469 C 1142.96875 810.898438 1136.480469 800.679688 1136.480469 800.679688 L 1105.980469 757.96875 C 1105.980469 757.96875 1101.679688 751.488281 1096.769531 749.441406 C 1091.839844 747.390625 1097.96875 767.140625 1097.96875 767.140625 L 1058.71875 741.519531 C 1058.71875 741.519531 1052.761719 737.570312 1048.488281 740.039062 C 1044.210938 742.511719 1046.359375 762.199219 1048.761719 769.871094 C 1051.160156 777.539062 1077.550781 806.359375 1077.550781 806.359375 Z M 1114.488281 824.578125 "/>
<path fill-rule="nonzero" fill="rgb(19.993591%, 19.993591%, 19.993591%)" fill-opacity="1" d="M 1268.109375 592.980469 C 1288.191406 591.191406 1304.308594 568.988281 1304.308594 568.988281 C 1304.308594 568.988281 1328.769531 579.109375 1349.398438 592.898438 C 1370.039062 606.699219 1385.320312 602.308594 1385.320312 602.308594 L 1391.769531 632.410156 C 1402.691406 632.410156 1403.421875 618.800781 1415.558594 611.648438 C 1428.210938 604.199219 1438.691406 615.441406 1432.589844 634.359375 C 1426.488281 653.28125 1412.410156 650.96875 1412.410156 650.96875 C 1413.601562 661.429688 1416.691406 683.070312 1422.648438 688.851562 C 1422.648438 688.851562 1447.671875 665.089844 1454.820312 621.359375 C 1461.96875 577.621094 1446.25 537.890625 1399.269531 520.351562 C 1352.289062 502.808594 1318.691406 514.699219 1294.609375 533.441406 C 1270.519531 552.171875 1268.109375 592.980469 1268.109375 592.980469 Z M 1268.109375 592.980469 "/>
<path fill-rule="nonzero" fill="rgb(78.514099%, 44.309998%, 21.556091%)" fill-opacity="1" d="M 1198.480469 555.429688 C 1207.539062 549.761719 1260.429688 535.789062 1366.390625 567.5 C 1472.339844 599.199219 1507.449219 640.511719 1510.851562 646.910156 C 1494.160156 594.589844 1429.511719 515.730469 1385.070312 484.820312 C 1315.058594 494.78125 1221.070312 529.609375 1198.480469 555.429688 Z M 1198.480469 555.429688 "/>
<path fill-rule="nonzero" fill="rgb(30.200195%, 30.200195%, 30.200195%)" fill-opacity="1" d="M 1267.148438 846.140625 C 1267.328125 848.78125 1265.570312 850.539062 1263.210938 850.089844 C 1260.859375 849.621094 1258.789062 847.109375 1258.609375 844.46875 C 1258.429688 841.839844 1260.191406 840.070312 1262.550781 840.519531 C 1264.898438 840.980469 1266.960938 843.5 1267.148438 846.140625 Z M 1267.148438 846.140625 "/>
<path fill-rule="nonzero" fill="rgb(39.988708%, 39.988708%, 39.988708%)" fill-opacity="1" d="M 1266.441406 846 C 1266.601562 848.210938 1265.128906 849.679688 1263.160156 849.300781 C 1261.191406 848.921875 1259.460938 846.820312 1259.308594 844.609375 C 1259.160156 842.410156 1260.628906 840.929688 1262.601562 841.308594 C 1264.570312 841.691406 1266.289062 843.789062 1266.441406 846 Z M 1266.441406 846 "/>
<path fill-rule="nonzero" fill="rgb(93.359375%, 76.171875%, 6.665039%)" fill-opacity="1" d="M 579.871094 602.058594 C 579.871094 602.058594 575.441406 592.441406 577.882812 582.660156 C 580.328125 572.890625 584.449219 584.808594 584.449219 584.808594 C 584.449219 584.808594 580.480469 561.738281 585.0625 557.621094 C 589.644531 553.5 592.851562 565.410156 592.851562 565.410156 C 592.851562 565.410156 589.796875 552.730469 593.917969 544.328125 C 598.042969 535.929688 602.320312 548 602.320312 548 C 602.320312 548 602.164062 533.179688 606.289062 525.550781 C 610.414062 517.910156 613.621094 529.820312 613.621094 529.820312 C 613.621094 529.820312 615.300781 519.589844 620.1875 510.890625 C 625.074219 502.179688 627.210938 513.328125 627.210938 513.328125 C 627.210938 513.328125 631.792969 497.910156 637.445312 495 C 643.097656 492.101562 641.261719 501.871094 641.261719 501.871094 C 641.261719 501.871094 649.050781 490.570312 654.550781 487.210938 C 660.046875 483.859375 658.0625 491.949219 658.0625 491.949219 C 658.0625 491.949219 660.8125 483.859375 672.875 483.699219 C 684.941406 483.550781 684.179688 493.929688 678.527344 493.929688 C 672.875 493.929688 661.726562 494.238281 661.726562 494.238281 C 661.726562 494.238281 672.265625 494.238281 671.65625 499.429688 C 671.042969 504.621094 641.722656 504.019531 641.722656 504.019531 C 641.722656 504.019531 654.855469 502.941406 653.785156 508.289062 C 652.71875 513.640625 630.113281 517.761719 630.113281 517.761719 C 630.113281 517.761719 637.75 518.679688 637.75 522.800781 C 637.75 526.921875 616.0625 531.960938 616.0625 531.960938 C 616.0625 531.960938 626.144531 531.351562 627.519531 536.539062 C 628.894531 541.730469 604 549.371094 604 549.371094 C 604 549.371094 615.300781 548.761719 616.0625 554.871094 C 616.828125 560.980469 595.292969 566.78125 595.292969 566.78125 C 595.292969 566.78125 602.929688 566.929688 604.761719 571.671875 C 606.59375 576.398438 586.128906 585.410156 586.128906 585.410156 C 586.128906 585.410156 594.988281 581.898438 594.988281 588.621094 C 594.988281 595.339844 579.871094 602.058594 579.871094 602.058594 Z M 579.871094 602.058594 "/>
<path fill-rule="nonzero" fill="rgb(19.993591%, 19.993591%, 19.993591%)" fill-opacity="1" d="M 669.878906 488.75 C 669.757812 488.75 669.636719 488.769531 669.519531 488.800781 C 638.015625 497.230469 614.445312 524.769531 595.320312 562.859375 C 576.195312 600.960938 561.460938 649.710938 547.710938 701.019531 C 547.539062 701.660156 547.917969 702.320312 548.5625 702.5 C 549.210938 702.671875 549.875 702.289062 550.046875 701.640625 C 563.78125 650.378906 578.507812 601.75 597.480469 563.949219 C 616.457031 526.148438 639.625 499.300781 670.144531 491.128906 C 670.789062 490.960938 671.171875 490.300781 671.003906 489.648438 C 670.867188 489.140625 670.410156 488.769531 669.878906 488.75 Z M 669.878906 488.75 "/>
<path fill-rule="nonzero" fill="rgb(93.359375%, 76.171875%, 6.665039%)" fill-opacity="1" d="M 553.144531 597.039062 C 553.144531 597.039062 546.378906 588.898438 546.207031 578.820312 C 546.039062 568.75 553.105469 579.191406 553.105469 579.191406 C 553.105469 579.191406 543.300781 557.941406 546.660156 552.769531 C 550.015625 547.609375 556.199219 558.28125 556.199219 558.28125 C 556.199219 558.28125 549.96875 546.828125 551.777344 537.640625 C 553.585938 528.460938 560.835938 539.011719 560.835938 539.011719 C 560.835938 539.011719 556.855469 524.738281 558.863281 516.300781 C 560.871094 507.859375 567.050781 518.53125 567.050781 518.53125 C 567.050781 518.53125 566.023438 508.210938 568.492188 498.539062 C 570.960938 488.871094 575.910156 499.078125 575.910156 499.078125 C 575.910156 499.078125 576.34375 483 581.050781 478.730469 C 585.757812 474.46875 586.515625 484.378906 586.515625 484.378906 C 586.515625 484.378906 591.117188 471.449219 595.558594 466.78125 C 599.996094 462.109375 600.175781 470.441406 600.175781 470.441406 C 600.175781 470.441406 600.734375 461.921875 612.351562 458.648438 C 623.964844 455.371094 625.914062 465.609375 620.457031 467.070312 C 615 468.53125 604.308594 471.710938 604.308594 471.710938 C 604.308594 471.710938 614.488281 468.980469 615.242188 474.160156 C 615.996094 479.328125 587.515625 486.328125 587.515625 486.328125 C 587.515625 486.328125 599.921875 481.898438 600.273438 487.339844 C 600.625 492.78125 579.859375 502.609375 579.859375 502.609375 C 579.859375 502.609375 587.472656 501.519531 588.539062 505.5 C 589.605469 509.480469 569.964844 519.960938 569.964844 519.960938 C 569.964844 519.960938 579.542969 516.769531 582.214844 521.429688 C 584.886719 526.089844 562.816406 539.910156 562.816406 539.910156 C 562.816406 539.910156 573.574219 536.390625 575.894531 542.089844 C 578.210938 547.800781 558.914062 558.980469 558.914062 558.980469 C 558.914062 558.980469 566.328125 557.148438 569.324219 561.25 C 572.320312 565.339844 554.886719 579.339844 554.886719 579.339844 C 554.886719 579.339844 562.53125 573.660156 564.269531 580.148438 C 566.011719 586.640625 553.144531 597.039062 553.144531 597.039062 Z M 553.144531 597.039062 "/>
<path fill-rule="nonzero" fill="rgb(19.993591%, 19.993591%, 19.993591%)" fill-opacity="1" d="M 610.761719 464.308594 C 610.644531 464.328125 610.53125 464.371094 610.425781 464.429688 C 582.179688 480.730469 566.539062 513.441406 557.925781 555.179688 C 549.3125 596.929688 547.695312 647.839844 547.695312 700.949219 C 547.695312 701.621094 548.234375 702.160156 548.902344 702.160156 C 549.570312 702.160156 550.113281 701.621094 550.113281 700.949219 C 550.113281 647.878906 551.746094 597.089844 560.292969 555.671875 C 568.839844 514.25 584.265625 482.320312 611.636719 466.53125 C 612.210938 466.191406 612.410156 465.460938 612.082031 464.878906 C 611.816406 464.421875 611.28125 464.179688 610.761719 464.308594 Z M 610.761719 464.308594 "/>
<path fill-rule="nonzero" fill="rgb(75.78125%, 83.59375%, 15.696716%)" fill-opacity="1" d="M 502.285156 554.410156 C 502.285156 554.410156 533.441406 575.488281 540.160156 619.160156 C 546.882812 662.839844 548.253906 672.160156 548.253906 672.160156 L 549.628906 644.210938 C 549.628906 644.210938 549.324219 600.230469 534.96875 580.679688 C 520.613281 561.128906 502.285156 554.410156 502.285156 554.410156 Z M 567.199219 640.730469 C 554.980469 651.71875 548.101562 690.328125 548.101562 690.328125 L 549.628906 701.941406 C 549.628906 701.941406 564.902344 651.691406 572.082031 645.589844 C 573.417969 644.449219 574.71875 643.660156 575.949219 643.179688 C 575.949219 643.179688 575.949219 643.171875 575.949219 643.171875 C 575.949219 643.171875 575.949219 643.179688 575.980469 643.179688 C 581.433594 652.738281 583.414062 675.519531 583.414062 675.519531 C 583.414062 675.519531 584.863281 662.460938 584.941406 655.359375 C 585.019531 648.261719 582.066406 643.800781 580.652344 642.710938 C 579.234375 641.621094 576.695312 640.820312 574.863281 640.089844 C 573.035156 639.339844 571.800781 639.039062 570.804688 639.019531 C 569.804688 639 568.566406 639.519531 567.230469 640.730469 Z M 567.199219 640.730469 "/>
<path fill-rule="nonzero" fill="rgb(47.068787%, 65.039062%, 17.259216%)" fill-opacity="1" d="M 839.296875 561.78125 L 1009.46875 561.78125 C 1021.21875 561.78125 1030.679688 571.230469 1030.679688 582.980469 L 1030.679688 655.410156 C 1030.679688 667.160156 1021.21875 676.621094 1009.46875 676.621094 L 839.296875 676.621094 C 827.546875 676.621094 818.089844 667.160156 818.089844 655.410156 L 818.089844 582.980469 C 818.089844 571.230469 827.546875 561.78125 839.296875 561.78125 Z M 839.296875 561.78125 "/>
<path fill-rule="nonzero" fill="rgb(75.78125%, 83.59375%, 15.696716%)" fill-opacity="1" d="M 824.636719 547.730469 L 994.808594 547.730469 C 1006.558594 547.730469 1016.019531 557.179688 1016.019531 568.929688 L 1016.019531 641.359375 C 1016.019531 653.109375 1006.558594 662.570312 994.808594 662.570312 L 824.636719 662.570312 C 812.886719 662.570312 803.425781 653.109375 803.425781 641.359375 L 803.425781 568.929688 C 803.425781 557.179688 812.886719 547.730469 824.636719 547.730469 Z M 824.636719 547.730469 "/>
<path fill-rule="nonzero" fill="rgb(100%, 100%, 100%)" fill-opacity="1" d="M 953.832031 605.558594 C 953.832031 616.949219 949.304688 627.890625 941.242188 635.941406 C 933.183594 644.011719 922.25 648.53125 910.851562 648.53125 C 899.453125 648.53125 888.519531 644.011719 880.460938 635.941406 C 872.398438 627.890625 867.871094 616.949219 867.871094 605.558594 C 867.871094 594.160156 872.398438 583.21875 880.460938 575.160156 C 888.519531 567.101562 899.453125 562.570312 910.851562 562.570312 C 922.25 562.570312 933.183594 567.101562 941.242188 575.160156 C 949.304688 583.21875 953.832031 594.160156 953.832031 605.558594 Z M 953.832031 605.558594 "/>
<path fill-rule="nonzero" fill="rgb(100%, 83.201599%, 16.479492%)" fill-opacity="1" d="M 907.878906 573.148438 L 907.878906 581.039062 C 902.753906 581.460938 898.855469 582.929688 896.175781 585.46875 C 893.546875 588.011719 892.230469 591.109375 892.230469 594.75 C 892.230469 597.660156 892.945312 600.019531 894.375 601.820312 C 895.855469 603.621094 897.65625 604.980469 899.777344 605.898438 C 901.949219 606.820312 904.648438 607.679688 907.878906 608.460938 L 907.878906 624.53125 C 905.109375 624.339844 902.457031 623.769531 899.917969 622.800781 C 897.378906 621.78125 895.277344 620.511719 893.613281 618.988281 L 891.054688 624.390625 C 892.851562 626.050781 895.253906 627.441406 898.253906 628.539062 C 901.300781 629.609375 904.507812 630.230469 907.878906 630.410156 L 907.878906 638.238281 L 912.3125 638.238281 L 912.3125 630.410156 C 917.527344 630 921.5 628.519531 924.222656 625.980469 C 926.992188 623.441406 928.375 620.351562 928.375 616.699219 C 928.375 613.75 927.613281 611.390625 926.089844 609.640625 C 924.613281 607.839844 922.789062 606.5 920.621094 605.621094 C 918.449219 604.699219 915.679688 603.820312 912.3125 602.988281 L 912.3125 586.859375 C 916.417969 587.089844 920.34375 588.378906 924.082031 590.730469 L 926.367188 585.191406 C 924.566406 583.949219 922.421875 582.960938 919.929688 582.21875 C 917.480469 581.480469 914.941406 581.058594 912.3125 580.96875 L 912.3125 573.148438 Z M 907.878906 586.929688 L 907.878906 601.878906 C 905.015625 601.140625 902.824219 600.21875 901.300781 599.109375 C 899.777344 598.011719 899.015625 596.460938 899.015625 594.46875 C 899.015625 592.53125 899.753906 590.898438 901.230469 589.558594 C 902.710938 588.171875 904.925781 587.300781 907.878906 586.929688 Z M 912.3125 609.570312 C 915.3125 610.398438 917.597656 611.371094 919.167969 612.480469 C 920.78125 613.539062 921.589844 615.089844 921.589844 617.121094 C 921.589844 619.101562 920.804688 620.769531 919.234375 622.109375 C 917.710938 623.398438 915.402344 624.179688 912.3125 624.460938 Z M 912.3125 609.570312 "/>
<path fill-rule="nonzero" fill="rgb(75.78125%, 83.59375%, 15.696716%)" fill-opacity="1" d="M 683.945312 579.308594 L 724.488281 579.308594 C 726.972656 579.308594 728.972656 581.308594 728.972656 583.789062 L 728.972656 592.949219 C 728.972656 595.429688 726.972656 597.429688 724.488281 597.429688 L 683.945312 597.429688 C 681.460938 597.429688 679.460938 595.429688 679.460938 592.949219 L 679.460938 583.789062 C 679.460938 581.308594 681.460938 579.308594 683.945312 579.308594 Z M 683.945312 579.308594 "/>
<path fill-rule="nonzero" fill="rgb(75.78125%, 83.59375%, 15.696716%)" fill-opacity="1" d="M 683.945312 610.148438 L 724.488281 610.148438 C 726.972656 610.148438 728.972656 612.148438 728.972656 614.640625 L 728.972656 623.800781 C 728.972656 626.28125 726.972656 628.28125 724.488281 628.28125 L 683.945312 628.28125 C 681.460938 628.28125 679.460938 626.28125 679.460938 623.800781 L 679.460938 614.640625 C 679.460938 612.148438 681.460938 610.148438 683.945312 610.148438 Z M 683.945312 610.148438 "/>
<path fill-rule="nonzero" fill="rgb(86.71875%, 66.992188%, 25.488281%)" fill-opacity="1" d="M 615.886719 791.519531 C 614.003906 791.011719 612.121094 790.570312 610.242188 790.191406 C 608.789062 789.859375 607.3125 789.53125 605.78125 789.230469 C 585.886719 785.371094 555.507812 786.46875 539.566406 792.351562 C 539.472656 790.21875 538.761719 787.808594 537.570312 785.578125 C 534.945312 780.660156 530.738281 777.96875 528.171875 779.570312 C 525.609375 781.160156 525.660156 786.441406 528.289062 791.359375 C 529.476562 793.589844 531.0625 795.460938 532.722656 796.621094 C 519.21875 809.960938 506.953125 851.078125 506.429688 852.308594 C 506.429688 852.308594 506.429688 852.519531 506.429688 852.53125 C 506.167969 853.398438 505.917969 854.269531 505.683594 855.148438 L 488.707031 918.511719 C 487.652344 922.441406 486.878906 926.371094 486.363281 930.300781 C 485.292969 932.519531 484.558594 933.988281 484.558594 933.988281 C 484.398438 935.308594 474.460938 977.050781 479.484375 995.359375 C 477.46875 995.53125 475.160156 996.371094 473.011719 997.699219 C 468.28125 1000.640625 465.597656 1005.191406 467.019531 1007.859375 C 468.441406 1010.519531 473.433594 1010.289062 478.164062 1007.339844 C 480.308594 1006.019531 482.128906 1004.28125 483.273438 1002.480469 C 494.144531 1015.539062 519.90625 1031.679688 539.0625 1038.289062 C 541.5625 1039.148438 544.003906 1039.898438 546.359375 1040.539062 C 548.605469 1041.160156 550.765625 1041.671875 552.839844 1042.109375 C 554.855469 1042.769531 556.984375 1043.398438 559.234375 1043.988281 C 561.597656 1044.609375 564.085938 1045.191406 566.683594 1045.691406 C 586.574219 1049.550781 616.953125 1048.449219 632.898438 1042.570312 C 632.992188 1044.699219 633.703125 1047.121094 634.890625 1049.339844 C 637.519531 1054.261719 641.726562 1056.949219 644.289062 1055.359375 C 646.855469 1053.761719 646.804688 1048.480469 644.175781 1043.558594 C 642.984375 1041.339844 641.402344 1039.460938 639.738281 1038.308594 C 653.246094 1024.960938 665.511719 983.839844 668.09375 975.558594 L 690.328125 889.28125 C 693 874.660156 696.367188 851.851562 692.992188 839.558594 C 695.011719 839.390625 697.320312 838.558594 699.464844 837.21875 C 704.199219 834.28125 706.882812 829.730469 705.460938 827.070312 C 704.035156 824.398438 699.046875 824.628906 694.3125 827.578125 C 692.171875 828.910156 690.351562 830.640625 689.203125 832.441406 C 678.332031 819.378906 652.574219 803.238281 633.417969 796.628906 C 632.304688 796.25 631.207031 795.898438 630.117188 795.558594 C 628.121094 794.871094 626.089844 794.25 624.019531 793.691406 Z M 615.886719 791.519531 "/>
<path fill-rule="nonzero" fill="rgb(92.576599%, 80.46875%, 29.80957%)" fill-opacity="1" d="M 615.886719 791.519531 C 614.003906 791.011719 612.121094 790.570312 610.242188 790.191406 C 608.789062 789.859375 607.3125 789.53125 605.78125 789.230469 C 585.886719 785.371094 555.507812 786.46875 539.566406 792.351562 C 539.472656 790.21875 538.761719 787.808594 537.570312 785.578125 C 534.945312 780.660156 530.738281 777.96875 528.171875 779.570312 C 525.609375 781.160156 525.660156 786.441406 528.289062 791.359375 C 529.476562 793.589844 531.0625 795.460938 532.722656 796.621094 C 519.21875 809.960938 506.953125 851.078125 506.316406 853.121094 L 486.582031 926.660156 C 484.460938 934.808594 480.609375 951.148438 478.886719 967.820312 C 489.890625 977.371094 512.402344 993.839844 546.351562 1004.179688 C 596.441406 1019.449219 628.859375 1013.359375 628.859375 1013.359375 C 628.859375 1013.359375 645.460938 983.359375 663.148438 912.960938 C 672.476562 875.839844 683.566406 856.429688 694.183594 847 C 693.96875 844.261719 693.59375 841.738281 692.992188 839.558594 C 695.011719 839.390625 697.320312 838.558594 699.464844 837.21875 C 704.199219 834.28125 706.882812 829.730469 705.460938 827.070312 C 704.035156 824.398438 699.046875 824.628906 694.3125 827.578125 C 692.171875 828.910156 690.351562 830.640625 689.203125 832.441406 C 678.332031 819.378906 652.574219 803.238281 633.417969 796.628906 C 632.304688 796.25 631.207031 795.890625 630.117188 795.558594 C 628.121094 794.871094 626.089844 794.25 624.019531 793.691406 Z M 615.886719 791.519531 "/>
<path fill-rule="nonzero" fill="rgb(86.71875%, 66.992188%, 25.488281%)" fill-opacity="1" d="M 624.199219 853.5 C 623.96875 853.519531 623.742188 853.570312 623.535156 853.679688 L 584.589844 872.929688 L 581.046875 859.730469 C 580.8125 858.839844 579.898438 858.308594 579.007812 858.550781 C 578.121094 858.78125 577.59375 859.699219 577.832031 860.589844 L 581.546875 874.441406 L 567.324219 881.480469 L 564.652344 871.5 C 564.414062 870.609375 563.5 870.078125 562.609375 870.320312 C 561.71875 870.558594 561.191406 871.46875 561.429688 872.359375 L 564.273438 882.980469 L 516.492188 906.609375 C 515.664062 907.011719 515.324219 908.011719 515.734375 908.839844 C 516.140625 909.660156 517.140625 910 517.964844 909.589844 L 565.15625 886.261719 L 568.824219 899.960938 L 528.234375 920.058594 C 527.410156 920.46875 527.078125 921.46875 527.484375 922.289062 C 527.894531 923.109375 528.894531 923.449219 529.714844 923.039062 L 569.703125 903.238281 L 574.175781 919.929688 C 574.414062 920.820312 575.328125 921.339844 576.21875 921.109375 C 577.105469 920.871094 577.628906 919.949219 577.390625 919.070312 L 572.742188 901.730469 L 586.972656 894.679688 L 595.417969 926.210938 C 595.652344 927.101562 596.566406 927.628906 597.457031 927.390625 C 598.34375 927.148438 598.871094 926.238281 598.632812 925.351562 L 590.007812 893.179688 L 618.863281 878.890625 C 619.6875 878.480469 620.027344 877.480469 619.621094 876.660156 C 619.210938 875.839844 618.210938 875.5 617.390625 875.910156 L 589.136719 889.898438 L 585.464844 876.210938 L 625.011719 856.660156 C 625.835938 856.261719 626.171875 855.261719 625.765625 854.429688 C 625.472656 853.839844 624.859375 853.480469 624.199219 853.5 Z M 582.425781 877.71875 L 586.09375 891.410156 L 571.871094 898.449219 L 568.203125 884.75 Z M 582.425781 877.71875 "/>
<path fill-rule="nonzero" fill="rgb(19.993591%, 19.993591%, 19.993591%)" fill-opacity="1" d="M 852.539062 823.769531 C 851.558594 823.769531 850.769531 824.558594 850.769531 825.539062 C 850.769531 826.519531 851.5625 827.308594 852.539062 827.308594 L 1038.679688 827.308594 C 1039.648438 827.308594 1040.441406 826.519531 1040.441406 825.539062 C 1040.441406 824.558594 1039.648438 823.769531 1038.679688 823.769531 Z M 790.300781 850.121094 C 789.328125 850.121094 788.535156 850.910156 788.53125 851.878906 C 788.53125 852.859375 789.324219 853.648438 790.300781 853.648438 L 1038.679688 853.648438 C 1039.648438 853.648438 1040.441406 852.859375 1040.441406 851.878906 C 1040.441406 850.910156 1039.648438 850.121094 1038.679688 850.121094 Z M 790.300781 878.011719 C 789.324219 878.011719 788.53125 878.800781 788.53125 879.78125 C 788.53125 880.761719 789.324219 881.550781 790.300781 881.550781 L 1038.679688 881.550781 C 1039.648438 881.550781 1040.441406 880.761719 1040.441406 879.78125 C 1040.441406 878.800781 1039.648438 878.011719 1038.679688 878.011719 Z M 790.300781 904.359375 C 789.324219 904.359375 788.53125 905.148438 788.53125 906.128906 C 788.53125 907.109375 789.324219 907.898438 790.300781 907.898438 L 1038.679688 907.898438 C 1039.648438 907.898438 1040.441406 907.109375 1040.441406 906.128906 C 1040.441406 905.148438 1039.648438 904.359375 1038.679688 904.359375 Z M 790.300781 936.640625 C 789.324219 936.640625 788.53125 937.441406 788.53125 938.410156 C 788.53125 939.390625 789.324219 940.179688 790.300781 940.179688 L 1038.679688 940.179688 C 1039.648438 940.179688 1040.441406 939.390625 1040.441406 938.410156 C 1040.441406 937.441406 1039.648438 936.640625 1038.679688 936.640625 Z M 790.300781 962.988281 C 789.324219 962.988281 788.53125 963.78125 788.53125 964.761719 C 788.53125 965.738281 789.324219 966.53125 790.300781 966.53125 L 1038.679688 966.53125 C 1039.648438 966.53125 1040.441406 965.738281 1040.441406 964.761719 C 1040.441406 963.78125 1039.648438 962.988281 1038.679688 962.988281 Z M 790.300781 990.890625 C 789.324219 990.890625 788.53125 991.679688 788.53125 992.660156 C 788.53125 993.640625 789.324219 994.429688 790.300781 994.429688 L 1038.679688 994.429688 C 1039.648438 994.429688 1040.441406 993.640625 1040.441406 992.660156 C 1040.441406 991.679688 1039.648438 990.890625 1038.679688 990.890625 Z M 790.300781 1017.230469 C 789.324219 1017.230469 788.53125 1018.03125 788.53125 1019 C 788.53125 1019.980469 789.328125 1020.769531 790.300781 1020.769531 L 949.765625 1020.769531 C 950.742188 1020.769531 951.535156 1019.980469 951.535156 1019 C 951.535156 1018.03125 950.746094 1017.230469 949.765625 1017.230469 Z M 790.300781 1017.230469 "/>
<path fill-rule="nonzero" fill="rgb(75.78125%, 83.59375%, 15.696716%)" fill-opacity="1" d="M 1222.269531 1849.882812 C 1218.738281 1849.902344 1215.878906 1855.851562 1215.878906 1863.1875 C 1215.890625 1863.566406 1215.898438 1863.945312 1215.910156 1864.320312 C 1211.378906 1858.203125 1205.449219 1854.464844 1202.46875 1855.855469 C 1199.410156 1857.285156 1200.609375 1863.597656 1205.160156 1869.960938 C 1209.710938 1876.324219 1215.878906 1880.324219 1218.941406 1878.894531 C 1219.921875 1878.4375 1220.5 1877.445312 1220.609375 1876.023438 C 1221.160156 1876.332031 1221.730469 1876.488281 1222.300781 1876.488281 C 1223.558594 1876.488281 1224.789062 1875.710938 1225.851562 1874.257812 C 1225.589844 1876.480469 1226.171875 1878.039062 1227.480469 1878.648438 C 1228.949219 1879.335938 1231.230469 1878.777344 1233.820312 1877.101562 C 1236.398438 1875.425781 1239.078125 1872.769531 1241.261719 1869.714844 C 1245.808594 1863.351562 1247.011719 1857.035156 1243.949219 1855.605469 C 1240.890625 1854.179688 1234.710938 1858.179688 1230.171875 1864.539062 C 1229.511719 1865.457031 1228.910156 1866.398438 1228.378906 1867.335938 C 1228.589844 1865.996094 1228.699219 1864.597656 1228.699219 1863.1875 C 1228.699219 1855.839844 1225.828125 1849.882812 1222.300781 1849.882812 C 1222.289062 1849.882812 1222.269531 1849.882812 1222.269531 1849.882812 Z M 1222.269531 1849.882812 "/>
<path fill-rule="nonzero" fill="rgb(53.318787%, 65.818787%, 17.259216%)" fill-opacity="1" d="M 1540.558594 1769.078125 C 1537.03125 1769.097656 1534.171875 1775.050781 1534.171875 1782.382812 C 1534.179688 1782.761719 1534.191406 1783.140625 1534.210938 1783.515625 C 1529.679688 1777.398438 1523.738281 1773.660156 1520.769531 1775.050781 C 1517.710938 1776.480469 1518.910156 1782.796875 1523.460938 1789.15625 C 1528 1795.519531 1534.171875 1799.519531 1537.230469 1798.089844 C 1538.21875 1797.632812 1538.789062 1796.640625 1538.910156 1795.21875 C 1539.460938 1795.527344 1540.019531 1795.683594 1540.589844 1795.683594 C 1541.859375 1795.683594 1543.089844 1794.90625 1544.140625 1793.453125 C 1543.890625 1795.679688 1544.460938 1797.234375 1545.769531 1797.84375 C 1547.25 1798.53125 1549.519531 1797.976562 1552.109375 1796.300781 C 1554.691406 1794.625 1557.371094 1791.964844 1559.558594 1788.910156 C 1561.738281 1785.855469 1563.25 1782.652344 1563.75 1780.003906 C 1564.261719 1777.359375 1563.710938 1775.488281 1562.238281 1774.800781 C 1559.179688 1773.375 1553.011719 1777.375 1548.460938 1783.738281 C 1547.808594 1784.652344 1547.210938 1785.59375 1546.679688 1786.535156 C 1546.890625 1785.195312 1547 1783.792969 1547 1782.382812 C 1547 1775.035156 1544.128906 1769.082031 1540.589844 1769.078125 C 1540.578125 1769.078125 1540.570312 1769.078125 1540.558594 1769.078125 Z M 1540.558594 1769.078125 "/>
<path fill-rule="nonzero" fill="rgb(100%, 100%, 100%)" fill-opacity="1" d="M 1762.480469 600.058594 C 1739.589844 600.058594 1719.539062 615.351562 1713.480469 637.410156 C 1707.378906 633.980469 1700.488281 632.171875 1693.488281 632.171875 C 1671.011719 632.171875 1652.789062 650.390625 1652.789062 672.871094 C 1652.789062 677.449219 1653.558594 682 1655.078125 686.320312 L 1644.359375 686.320312 C 1636.941406 686.320312 1630.980469 692.28125 1630.980469 699.699219 C 1630.980469 707.109375 1636.941406 713.078125 1644.359375 713.078125 L 1862.480469 713.078125 C 1869.890625 713.078125 1875.859375 707.109375 1875.859375 699.699219 C 1875.859375 692.28125 1869.890625 686.320312 1862.480469 686.320312 L 1855.570312 686.320312 C 1855.929688 684.429688 1856.109375 682.519531 1856.109375 680.601562 C 1856.109375 663.710938 1842.410156 650.011719 1825.519531 650.011719 C 1821.300781 650.011719 1817.121094 650.878906 1813.261719 652.570312 C 1813.289062 652 1813.289062 651.429688 1813.289062 650.871094 C 1813.289062 622.808594 1790.539062 600.058594 1762.480469 600.058594 Z M 1762.480469 600.058594 "/>
<path fill-rule="nonzero" fill="rgb(33.325195%, 59.959412%, 100%)" fill-opacity="1" d="M 1429.75 1189.078125 C 1429.5 1189.089844 1429.261719 1189.171875 1429.058594 1189.300781 C 1428.429688 1189.710938 1428.261719 1190.550781 1428.671875 1191.171875 L 1450.070312 1223.878906 C 1450.480469 1224.503906 1451.320312 1224.679688 1451.941406 1224.273438 C 1452.570312 1223.867188 1452.75 1223.03125 1452.339844 1222.40625 L 1430.929688 1189.691406 C 1430.671875 1189.300781 1430.21875 1189.070312 1429.75 1189.078125 Z M 1334.558594 1238.445312 C 1334.539062 1238.449219 1334.519531 1238.453125 1334.511719 1238.453125 C 1333.769531 1238.527344 1333.230469 1239.1875 1333.300781 1239.929688 L 1344.011719 1348.160156 C 1344.078125 1348.902344 1344.738281 1349.445312 1345.480469 1349.371094 C 1346.21875 1349.300781 1346.769531 1348.640625 1346.691406 1347.898438 L 1335.980469 1239.664062 C 1335.910156 1238.941406 1335.28125 1238.402344 1334.558594 1238.449219 Z M 1334.558594 1238.445312 "/>
</svg>
